# Aspose.3D Wavefront OBJ Exporter
# Copyright 2004-2023 Aspose Pty Ltd.
# File created: 06/10/2023 17:43:18


#
# object obj_55639224
#

v -0.15000000596046448 0.04873999953269958 0.3386400043964386
v -0.15000000596046448 -0.04873999953269958 0.34953999519348144
v 0 0 0.34000000357627868
v 0.0927100032567978 0.12759999930858612 0.3386400043964386
v 0 0.15771999955177308 0.3386400043964386
v 0 0 0.34000000357627868
v 0.0927100032567978 -0.12759999930858612 0.35280999541282652
v 0.15000000596046448 -0.04873999953269958 0.36399000883102416
v 0 0 0.34000000357627868
v -0.15000000596046448 -0.04873999953269958 0.34953999519348144
v -0.0927100032567978 -0.12759999930858612 0.3386400043964386
v 0 0 0.34000000357627868
v 0 0.15771999955177308 0.3386400043964386
v -0.0927100032567978 0.12759999930858612 0.3386400043964386
v 0 0 0.34000000357627868
v 0.15000000596046448 -0.04873999953269958 0.36399000883102416
v 0.15000000596046448 0.04873999953269958 0.35280999541282652
v 0 0 0.34000000357627868
v -0.0927100032567978 -0.12759999930858612 0.3386400043964386
v 0 -0.15771999955177308 0.3386400043964386
v 0 0 0.34000000357627868
v -0.0927100032567978 0.12759999930858612 0.3386400043964386
v -0.15000000596046448 0.04873999953269958 0.3386400043964386
v 0 0 0.34000000357627868
v 0.15000000596046448 0.04873999953269958 0.35280999541282652
v 0.0927100032567978 0.12759999930858612 0.3386400043964386
v 0 0 0.34000000357627868
v 0 -0.15771999955177308 0.3386400043964386
v 0.0927100032567978 -0.12759999930858612 0.35280999541282652
v 0 0 0.34000000357627868
# 30 vertices

vn 0.02713009156286716 0.11106037348508834 0.99344331026077264
vn 0.02713009156286716 0.11106037348508834 0.99344331026077264
vn 0.02713009156286716 0.11106037348508834 0.99344331026077264
vn 0.00278999842703342 0.00856999494135379 0.999959409236908
vn 0.00278999842703342 0.00856999494135379 0.999959409236908
vn 0.00278999842703342 0.00856999494135379 0.999959409236908
vn -0.16435027122497558 -0.02037003263831138 0.98619168996810912
vn -0.16435027122497558 -0.02037003263831138 0.98619168996810912
vn -0.16435027122497558 -0.02037003263831138 0.98619168996810912
vn 0.08723029494285583 -0.0739002525806427 0.99344342947006224
vn 0.08723029494285583 -0.0739002525806427 0.99344342947006224
vn 0.08723029494285583 -0.0739002525806427 0.99344342947006224
vn -0.00278999842703342 0.00856999494135379 0.999959409236908
vn -0.00278999842703342 0.00856999494135379 0.999959409236908
vn -0.00278999842703342 0.00856999494135379 0.999959409236908
vn -0.12099021673202514 0.1130802035331726 0.98619180917739872
vn -0.12099021673202514 0.1130802035331726 0.98619180917739872
vn -0.12099021673202514 0.1130802035331726 0.98619180917739872
vn -0.00278999842703342 -0.00856999494135379 0.999959409236908
vn -0.00278999842703342 -0.00856999494135379 0.999959409236908
vn -0.00278999842703342 -0.00856999494135379 0.999959409236908
vn -0.00728999590501189 0.00529999658465385 0.999959409236908
vn -0.00728999590501189 0.00529999658465385 0.999959409236908
vn -0.00728999590501189 0.00529999658465385 0.999959409236908
vn -0.11503973603248596 0.0940597802400589 0.98889774084091184
vn -0.11503973603248596 0.0940597802400589 0.98889774084091184
vn -0.11503973603248596 0.0940597802400589 0.98889774084091184
vn -0.14835958182811738 -0.00847997609525919 0.98889720439910896
vn -0.14835958182811738 -0.00847997609525919 0.98889720439910896
vn -0.14835958182811738 -0.00847997609525919 0.98889720439910896
# 30 vertex normals

vt 0.08428999781608582 -0.81866997480392464 0
vt 0.11492999643087388 -0.81866997480392464 0
vt 0.11492999643087388 -0.84930002689361568 0
vt 0.08428999781608582 -0.81866997480392464 0
vt 0.11492999643087388 -0.81866997480392464 0
vt 0.11492999643087388 -0.84930002689361568 0
vt 0.08428999781608582 -0.81866997480392464 0
vt 0.11492999643087388 -0.81866997480392464 0
vt 0.11492999643087388 -0.84930002689361568 0
vt 0.08428999781608582 -0.81866997480392464 0
vt 0.11492999643087388 -0.81866997480392464 0
vt 0.11492999643087388 -0.84930002689361568 0
vt 0.08428999781608582 -0.81866997480392464 0
vt 0.11492999643087388 -0.81866997480392464 0
vt 0.11492999643087388 -0.84930002689361568 0
vt 0.08428999781608582 -0.81866997480392464 0
vt 0.11492999643087388 -0.81866997480392464 0
vt 0.11492999643087388 -0.84930002689361568 0
vt 0.08428999781608582 -0.81866997480392464 0
vt 0.11492999643087388 -0.81866997480392464 0
vt 0.11492999643087388 -0.84930002689361568 0
vt 0.08428999781608582 -0.81866997480392464 0
vt 0.11492999643087388 -0.81866997480392464 0
vt 0.11492999643087388 -0.84930002689361568 0
vt 0.08428999781608582 -0.81866997480392464 0
vt 0.11492999643087388 -0.81866997480392464 0
vt 0.11492999643087388 -0.84930002689361568 0
vt 0.08428999781608582 -0.81866997480392464 0
vt 0.11492999643087388 -0.81866997480392464 0
vt 0.11492999643087388 -0.84930002689361568 0
# 30 texture coords

g obj_55639224
s 1
f 1/1/1 2/2/2 3/3/3
f 4/4/4 5/5/5 6/6/6
f 7/7/7 8/8/8 9/9/9
f 10/10/10 11/11/11 12/12/12
f 13/13/13 14/14/14 15/15/15
f 16/16/16 17/17/17 18/18/18
f 19/19/19 20/20/20 21/21/21
f 22/22/22 23/23/23 24/24/24
f 25/25/25 26/26/26 27/27/27
f 28/28/28 29/29/29 30/30/30
#10 polygons

